<?xml version="1.0" standalone="no"?><!DOCTYPE svg PUBLIC "-//W3C//DTD SVG 1.1//EN" "http://www.w3.org/Graphics/SVG/1.1/DTD/svg11.dtd"><svg t="1686620536561" class="icon" viewBox="0 0 1024 1024" version="1.1" xmlns="http://www.w3.org/2000/svg" p-id="1528" xmlns:xlink="http://www.w3.org/1999/xlink" width="200" height="200"><path d="M179.2 640h61.2864a76.8 76.8 0 0 1 42.5984 12.9024L417.3312 742.4h189.3376l134.2464-89.4976a76.8 76.8 0 0 1 42.5984-12.9024H844.8V563.2a25.6 25.6 0 0 1 51.2 0v307.2a76.8 76.8 0 0 1-76.8 76.8H204.8A76.8 76.8 0 0 1 128 870.4V204.8A76.8 76.8 0 0 1 204.8 128h614.4A76.8 76.8 0 0 1 896 204.8v186.0096a25.6 25.6 0 0 1-51.2 0V204.8a25.6 25.6 0 0 0-25.6-25.6H204.8a25.6 25.6 0 0 0-25.6 25.6v435.2z m0 51.2V870.4a25.6 25.6 0 0 0 25.6 25.6h614.4a25.6 25.6 0 0 0 25.6-25.6v-179.2h-61.2864a25.6 25.6 0 0 0-14.2336 4.3008l-135.5264 90.368a46.08 46.08 0 0 1-25.6 7.7312H415.8464a46.08 46.08 0 0 1-25.6-7.7312l-135.4752-90.368a25.6 25.6 0 0 0-14.2336-4.3008H179.2z m153.6-384h358.4a25.6 25.6 0 0 1 0 51.2h-358.4a25.6 25.6 0 0 1 0-51.2z m0 153.6h358.4a25.6 25.6 0 0 1 0 51.2h-358.4a25.6 25.6 0 0 1 0-51.2z m102.4 153.6h153.6a25.6 25.6 0 0 1 0 51.2h-153.6a25.6 25.6 0 0 1 0-51.2z" fill="#9DA7B2" p-id="1529"></path></svg>